<svg width="111" height="30" viewBox="0 0 111 30" fill="none" xmlns="http://www.w3.org/2000/svg">
<path d="M11.74 7.9V11.02H7.98V22H4.06V11.02H0.34V7.9H11.74ZM17.1103 12.76C17.5503 12.12 18.0836 11.6133 18.7103 11.24C19.337 10.8667 20.0103 10.68 20.7303 10.68V14.86H19.6303C18.777 14.86 18.1436 15.0267 17.7303 15.36C17.317 15.6933 17.1103 16.2733 17.1103 17.1V22H13.1903V10.78H17.1103V12.76ZM33.6156 10.78V22H29.6756V20.4C29.3423 20.9067 28.8823 21.32 28.2956 21.64C27.709 21.9467 27.0356 22.1 26.2756 22.1C24.969 22.1 23.9356 21.6733 23.1756 20.82C22.429 19.9533 22.0556 18.78 22.0556 17.3V10.78H25.9556V16.8C25.9556 17.44 26.1223 17.9467 26.4556 18.32C26.8023 18.68 27.2556 18.86 27.8156 18.86C28.389 18.86 28.8423 18.68 29.1756 18.32C29.509 17.9467 29.6756 17.44 29.6756 16.8V10.78H33.6156ZM46.5666 16.26C46.5666 16.5667 46.5466 16.8733 46.5066 17.18H39.0866C39.1266 17.7933 39.2932 18.2533 39.5866 18.56C39.8932 18.8533 40.2799 19 40.7466 19C41.3999 19 41.8666 18.7067 42.1466 18.12H46.3266C46.1532 18.8933 45.8132 19.5867 45.3066 20.2C44.8132 20.8 44.1866 21.2733 43.4266 21.62C42.6666 21.9667 41.8266 22.14 40.9066 22.14C39.7999 22.14 38.8132 21.9067 37.9466 21.44C37.0932 20.9733 36.4199 20.3067 35.9266 19.44C35.4466 18.5733 35.2066 17.5533 35.2066 16.38C35.2066 15.2067 35.4466 14.1933 35.9266 13.34C36.4066 12.4733 37.0732 11.8067 37.9266 11.34C38.7932 10.8733 39.7866 10.64 40.9066 10.64C42.0132 10.64 42.9932 10.8667 43.8466 11.32C44.6999 11.7733 45.3666 12.4267 45.8466 13.28C46.3266 14.12 46.5666 15.1133 46.5666 16.26ZM42.5666 15.28C42.5666 14.8 42.4066 14.4267 42.0866 14.16C41.7666 13.88 41.3666 13.74 40.8866 13.74C40.4066 13.74 40.0132 13.8733 39.7066 14.14C39.3999 14.3933 39.1999 14.7733 39.1066 15.28H42.5666Z" fill="white"/>
<path d="M56.6845 19H61.0645V22H52.7645V7.9H56.6845V19ZM73.3088 16.26C73.3088 16.5667 73.2888 16.8733 73.2488 17.18H65.8288C65.8688 17.7933 66.0354 18.2533 66.3288 18.56C66.6354 18.8533 67.0221 19 67.4888 19C68.1421 19 68.6088 18.7067 68.8888 18.12H73.0688C72.8954 18.8933 72.5554 19.5867 72.0488 20.2C71.5554 20.8 70.9288 21.2733 70.1688 21.62C69.4088 21.9667 68.5688 22.14 67.6488 22.14C66.5421 22.14 65.5554 21.9067 64.6888 21.44C63.8354 20.9733 63.1621 20.3067 62.6688 19.44C62.1888 18.5733 61.9488 17.5533 61.9488 16.38C61.9488 15.2067 62.1888 14.1933 62.6688 13.34C63.1488 12.4733 63.8154 11.8067 64.6688 11.34C65.5354 10.8733 66.5288 10.64 67.6488 10.64C68.7554 10.64 69.7354 10.8667 70.5888 11.32C71.4421 11.7733 72.1088 12.4267 72.5888 13.28C73.0688 14.12 73.3088 15.1133 73.3088 16.26ZM69.3088 15.28C69.3088 14.8 69.1488 14.4267 68.8288 14.16C68.5088 13.88 68.1088 13.74 67.6288 13.74C67.1488 13.74 66.7554 13.8733 66.4488 14.14C66.1421 14.3933 65.9421 14.7733 65.8488 15.28H69.3088ZM74.273 16.38C74.273 15.22 74.4796 14.2067 74.893 13.34C75.3196 12.4733 75.893 11.8067 76.613 11.34C77.3463 10.8733 78.1596 10.64 79.053 10.64C79.8263 10.64 80.493 10.7933 81.053 11.1C81.613 11.4067 82.0463 11.82 82.353 12.34V10.78H86.273V22H82.353V20.44C82.0463 20.96 81.6063 21.3733 81.033 21.68C80.473 21.9867 79.813 22.14 79.053 22.14C78.1596 22.14 77.3463 21.9067 76.613 21.44C75.893 20.9733 75.3196 20.3067 74.893 19.44C74.4796 18.56 74.273 17.54 74.273 16.38ZM82.353 16.38C82.353 15.66 82.153 15.0933 81.753 14.68C81.3663 14.2667 80.8863 14.06 80.313 14.06C79.7263 14.06 79.2396 14.2667 78.853 14.68C78.4663 15.08 78.273 15.6467 78.273 16.38C78.273 17.1 78.4663 17.6733 78.853 18.1C79.2396 18.5133 79.7263 18.72 80.313 18.72C80.8863 18.72 81.3663 18.5133 81.753 18.1C82.153 17.6867 82.353 17.1133 82.353 16.38ZM93.2867 22.14C92.2734 22.14 91.3667 21.9733 90.5667 21.64C89.7801 21.2933 89.1534 20.8267 88.6867 20.24C88.2334 19.64 87.9801 18.9667 87.9267 18.22H91.7267C91.7801 18.58 91.9467 18.86 92.2267 19.06C92.5067 19.26 92.8534 19.36 93.2667 19.36C93.5867 19.36 93.8401 19.2933 94.0267 19.16C94.2134 19.0267 94.3067 18.8533 94.3067 18.64C94.3067 18.36 94.1534 18.1533 93.8467 18.02C93.5401 17.8867 93.0334 17.74 92.3267 17.58C91.5267 17.42 90.8601 17.24 90.3267 17.04C89.7934 16.84 89.3267 16.5133 88.9267 16.06C88.5401 15.6067 88.3467 14.9933 88.3467 14.22C88.3467 13.5533 88.5267 12.9533 88.8867 12.42C89.2467 11.8733 89.7734 11.44 90.4667 11.12C91.1734 10.8 92.0201 10.64 93.0067 10.64C94.4734 10.64 95.6267 11 96.4667 11.72C97.3067 12.44 97.7934 13.3867 97.9267 14.56H94.3867C94.3201 14.2 94.1601 13.9267 93.9067 13.74C93.6667 13.54 93.3401 13.44 92.9267 13.44C92.6067 13.44 92.3601 13.5 92.1867 13.62C92.0267 13.74 91.9467 13.9067 91.9467 14.12C91.9467 14.3867 92.1001 14.5933 92.4067 14.74C92.7134 14.8733 93.2067 15.0133 93.8867 15.16C94.7001 15.3333 95.3734 15.5267 95.9067 15.74C96.4534 15.9533 96.9267 16.3 97.3267 16.78C97.7401 17.2467 97.9467 17.8867 97.9467 18.7C97.9467 19.3533 97.7534 19.94 97.3667 20.46C96.9934 20.98 96.4534 21.3933 95.7467 21.7C95.0534 21.9933 94.2334 22.14 93.2867 22.14ZM110.594 16.26C110.594 16.5667 110.574 16.8733 110.534 17.18H103.114C103.154 17.7933 103.321 18.2533 103.614 18.56C103.921 18.8533 104.307 19 104.774 19C105.427 19 105.894 18.7067 106.174 18.12H110.354C110.181 18.8933 109.841 19.5867 109.334 20.2C108.841 20.8 108.214 21.2733 107.454 21.62C106.694 21.9667 105.854 22.14 104.934 22.14C103.827 22.14 102.841 21.9067 101.974 21.44C101.121 20.9733 100.447 20.3067 99.9539 19.44C99.4739 18.5733 99.2339 17.5533 99.2339 16.38C99.2339 15.2067 99.4739 14.1933 99.9539 13.34C100.434 12.4733 101.101 11.8067 101.954 11.34C102.821 10.8733 103.814 10.64 104.934 10.64C106.041 10.64 107.021 10.8667 107.874 11.32C108.727 11.7733 109.394 12.4267 109.874 13.28C110.354 14.12 110.594 15.1133 110.594 16.26ZM106.594 15.28C106.594 14.8 106.434 14.4267 106.114 14.16C105.794 13.88 105.394 13.74 104.914 13.74C104.434 13.74 104.041 13.8733 103.734 14.14C103.427 14.3933 103.227 14.7733 103.134 15.28H106.594Z" fill="url(#paint0_linear_1_4)"/>
<defs>
<linearGradient id="paint0_linear_1_4" x1="0" y1="15" x2="112" y2="15" gradientUnits="userSpaceOnUse">
<stop offset="0.291667" stop-color="#671AEB"/>
<stop offset="1" stop-color="#F86FF6"/>
</linearGradient>
</defs>
</svg>
