<svg width="113" height="30" viewBox="0 0 113 30" fill="none" xmlns="http://www.w3.org/2000/svg">
<path d="M11.74 7.9V11.02H7.98V22H4.06V11.02H0.34V7.9H11.74ZM17.1103 12.76C17.5503 12.12 18.0836 11.6133 18.7103 11.24C19.337 10.8667 20.0103 10.68 20.7303 10.68V14.86H19.6303C18.777 14.86 18.1436 15.0267 17.7303 15.36C17.317 15.6933 17.1103 16.2733 17.1103 17.1V22H13.1903V10.78H17.1103V12.76ZM33.6156 10.78V22H29.6756V20.4C29.3423 20.9067 28.8823 21.32 28.2956 21.64C27.709 21.9467 27.0356 22.1 26.2756 22.1C24.969 22.1 23.9356 21.6733 23.1756 20.82C22.429 19.9533 22.0556 18.78 22.0556 17.3V10.78H25.9556V16.8C25.9556 17.44 26.1223 17.9467 26.4556 18.32C26.8023 18.68 27.2556 18.86 27.8156 18.86C28.389 18.86 28.8423 18.68 29.1756 18.32C29.509 17.9467 29.6756 17.44 29.6756 16.8V10.78H33.6156ZM46.5666 16.26C46.5666 16.5667 46.5466 16.8733 46.5066 17.18H39.0866C39.1266 17.7933 39.2932 18.2533 39.5866 18.56C39.8932 18.8533 40.2799 19 40.7466 19C41.3999 19 41.8666 18.7067 42.1466 18.12H46.3266C46.1532 18.8933 45.8132 19.5867 45.3066 20.2C44.8132 20.8 44.1866 21.2733 43.4266 21.62C42.6666 21.9667 41.8266 22.14 40.9066 22.14C39.7999 22.14 38.8132 21.9067 37.9466 21.44C37.0932 20.9733 36.4199 20.3067 35.9266 19.44C35.4466 18.5733 35.2066 17.5533 35.2066 16.38C35.2066 15.2067 35.4466 14.1933 35.9266 13.34C36.4066 12.4733 37.0732 11.8067 37.9266 11.34C38.7932 10.8733 39.7866 10.64 40.9066 10.64C42.0132 10.64 42.9932 10.8667 43.8466 11.32C44.6999 11.7733 45.3666 12.4267 45.8466 13.28C46.3266 14.12 46.5666 15.1133 46.5666 16.26ZM42.5666 15.28C42.5666 14.8 42.4066 14.4267 42.0866 14.16C41.7666 13.88 41.3666 13.74 40.8866 13.74C40.4066 13.74 40.0132 13.8733 39.7066 14.14C39.3999 14.3933 39.1999 14.7733 39.1066 15.28H42.5666Z" fill="#10000F"/>
<path d="M58.9814 19H63.3614V22H55.0614V7.9H58.9814V19ZM75.6056 16.26C75.6056 16.5667 75.5856 16.8733 75.5456 17.18H68.1256C68.1656 17.7933 68.3323 18.2533 68.6256 18.56C68.9323 18.8533 69.319 19 69.7856 19C70.439 19 70.9056 18.7067 71.1856 18.12H75.3656C75.1923 18.8933 74.8523 19.5867 74.3456 20.2C73.8523 20.8 73.2256 21.2733 72.4656 21.62C71.7056 21.9667 70.8656 22.14 69.9456 22.14C68.839 22.14 67.8523 21.9067 66.9856 21.44C66.1323 20.9733 65.459 20.3067 64.9656 19.44C64.4856 18.5733 64.2456 17.5533 64.2456 16.38C64.2456 15.2067 64.4856 14.1933 64.9656 13.34C65.4456 12.4733 66.1123 11.8067 66.9656 11.34C67.8323 10.8733 68.8256 10.64 69.9456 10.64C71.0523 10.64 72.0323 10.8667 72.8856 11.32C73.739 11.7733 74.4056 12.4267 74.8856 13.28C75.3656 14.12 75.6056 15.1133 75.6056 16.26ZM71.6056 15.28C71.6056 14.8 71.4456 14.4267 71.1256 14.16C70.8056 13.88 70.4056 13.74 69.9256 13.74C69.4456 13.74 69.0523 13.8733 68.7456 14.14C68.439 14.3933 68.239 14.7733 68.1456 15.28H71.6056ZM76.5698 16.38C76.5698 15.22 76.7765 14.2067 77.1898 13.34C77.6165 12.4733 78.1898 11.8067 78.9098 11.34C79.6432 10.8733 80.4565 10.64 81.3498 10.64C82.1232 10.64 82.7898 10.7933 83.3498 11.1C83.9098 11.4067 84.3432 11.82 84.6498 12.34V10.78H88.5698V22H84.6498V20.44C84.3432 20.96 83.9032 21.3733 83.3298 21.68C82.7698 21.9867 82.1098 22.14 81.3498 22.14C80.4565 22.14 79.6432 21.9067 78.9098 21.44C78.1898 20.9733 77.6165 20.3067 77.1898 19.44C76.7765 18.56 76.5698 17.54 76.5698 16.38ZM84.6498 16.38C84.6498 15.66 84.4498 15.0933 84.0498 14.68C83.6632 14.2667 83.1832 14.06 82.6098 14.06C82.0232 14.06 81.5365 14.2667 81.1498 14.68C80.7632 15.08 80.5698 15.6467 80.5698 16.38C80.5698 17.1 80.7632 17.6733 81.1498 18.1C81.5365 18.5133 82.0232 18.72 82.6098 18.72C83.1832 18.72 83.6632 18.5133 84.0498 18.1C84.4498 17.6867 84.6498 17.1133 84.6498 16.38ZM95.5836 22.14C94.5703 22.14 93.6636 21.9733 92.8636 21.64C92.0769 21.2933 91.4503 20.8267 90.9836 20.24C90.5303 19.64 90.2769 18.9667 90.2236 18.22H94.0236C94.0769 18.58 94.2436 18.86 94.5236 19.06C94.8036 19.26 95.1503 19.36 95.5636 19.36C95.8836 19.36 96.1369 19.2933 96.3236 19.16C96.5103 19.0267 96.6036 18.8533 96.6036 18.64C96.6036 18.36 96.4503 18.1533 96.1436 18.02C95.8369 17.8867 95.3303 17.74 94.6236 17.58C93.8236 17.42 93.1569 17.24 92.6236 17.04C92.0903 16.84 91.6236 16.5133 91.2236 16.06C90.8369 15.6067 90.6436 14.9933 90.6436 14.22C90.6436 13.5533 90.8236 12.9533 91.1836 12.42C91.5436 11.8733 92.0703 11.44 92.7636 11.12C93.4703 10.8 94.3169 10.64 95.3036 10.64C96.7703 10.64 97.9236 11 98.7636 11.72C99.6036 12.44 100.09 13.3867 100.224 14.56H96.6836C96.6169 14.2 96.4569 13.9267 96.2036 13.74C95.9636 13.54 95.6369 13.44 95.2236 13.44C94.9036 13.44 94.6569 13.5 94.4836 13.62C94.3236 13.74 94.2436 13.9067 94.2436 14.12C94.2436 14.3867 94.3969 14.5933 94.7036 14.74C95.0103 14.8733 95.5036 15.0133 96.1836 15.16C96.9969 15.3333 97.6703 15.5267 98.2036 15.74C98.7503 15.9533 99.2236 16.3 99.6236 16.78C100.037 17.2467 100.244 17.8867 100.244 18.7C100.244 19.3533 100.05 19.94 99.6636 20.46C99.2903 20.98 98.7503 21.3933 98.0436 21.7C97.3503 21.9933 96.5303 22.14 95.5836 22.14ZM112.891 16.26C112.891 16.5667 112.871 16.8733 112.831 17.18H105.411C105.451 17.7933 105.617 18.2533 105.911 18.56C106.217 18.8533 106.604 19 107.071 19C107.724 19 108.191 18.7067 108.471 18.12H112.651C112.477 18.8933 112.137 19.5867 111.631 20.2C111.137 20.8 110.511 21.2733 109.751 21.62C108.991 21.9667 108.151 22.14 107.231 22.14C106.124 22.14 105.137 21.9067 104.271 21.44C103.417 20.9733 102.744 20.3067 102.251 19.44C101.771 18.5733 101.531 17.5533 101.531 16.38C101.531 15.2067 101.771 14.1933 102.251 13.34C102.731 12.4733 103.397 11.8067 104.251 11.34C105.117 10.8733 106.111 10.64 107.231 10.64C108.337 10.64 109.317 10.8667 110.171 11.32C111.024 11.7733 111.691 12.4267 112.171 13.28C112.651 14.12 112.891 15.1133 112.891 16.26ZM108.891 15.28C108.891 14.8 108.731 14.4267 108.411 14.16C108.091 13.88 107.691 13.74 107.211 13.74C106.731 13.74 106.337 13.8733 106.031 14.14C105.724 14.3933 105.524 14.7733 105.431 15.28H108.891Z" fill="url(#paint0_linear_1_4)"/>
<defs>
<linearGradient id="paint0_linear_1_4" x1="0" y1="15" x2="114" y2="15" gradientUnits="userSpaceOnUse">
<stop offset="0.291667" stop-color="#9E1AEB"/>
<stop offset="1" stop-color="#F86FF6"/>
</linearGradient>
</defs>
</svg>
