<svg width="99" height="15" viewBox="0 0 99 15" fill="none" xmlns="http://www.w3.org/2000/svg">
<path d="M11.1 -9.53674e-07C11.1667 -9.53674e-07 11.22 0.0266658 11.26 0.0799992C11.3133 0.119999 11.34 0.173333 11.34 0.24V2.62C11.34 2.68667 11.3133 2.74667 11.26 2.8C11.22 2.84 11.1667 2.86 11.1 2.86H7.6C7.53333 2.86 7.5 2.89333 7.5 2.96V13.76C7.5 13.8267 7.47333 13.8867 7.42 13.94C7.38 13.98 7.32667 14 7.26 14H4.42C4.35333 14 4.29333 13.98 4.24 13.94C4.2 13.8867 4.18 13.8267 4.18 13.76V2.96C4.18 2.89333 4.14667 2.86 4.08 2.86H0.7C0.633333 2.86 0.573333 2.84 0.52 2.8C0.48 2.74667 0.46 2.68667 0.46 2.62V0.24C0.46 0.173333 0.48 0.119999 0.52 0.0799992C0.573333 0.0266658 0.633333 -9.53674e-07 0.7 -9.53674e-07H11.1ZM16.965 3.52C17.445 3.52 17.8183 3.60667 18.085 3.78C18.1917 3.84667 18.2317 3.94667 18.205 4.08L17.745 6.86C17.7317 7.02 17.6383 7.06667 17.465 7C17.225 6.94667 16.9983 6.92 16.785 6.92C16.5583 6.92 16.385 6.93333 16.265 6.96C15.8517 7.01333 15.4983 7.17333 15.205 7.44C14.925 7.70667 14.785 8.06 14.785 8.5V13.76C14.785 13.8267 14.7583 13.8867 14.705 13.94C14.665 13.98 14.6117 14 14.545 14H11.705C11.6383 14 11.5783 13.98 11.525 13.94C11.485 13.8867 11.465 13.8267 11.465 13.76V3.9C11.465 3.83333 11.485 3.78 11.525 3.74C11.5783 3.68667 11.6383 3.66 11.705 3.66H14.545C14.6117 3.66 14.665 3.68667 14.705 3.74C14.7583 3.78 14.785 3.83333 14.785 3.9V4.54C14.785 4.58 14.7983 4.60667 14.825 4.62C14.8517 4.63333 14.8717 4.62 14.885 4.58C15.4183 3.87333 16.1117 3.52 16.965 3.52ZM25.238 3.9C25.238 3.83333 25.258 3.78 25.298 3.74C25.3513 3.68667 25.4113 3.66 25.478 3.66H28.318C28.3846 3.66 28.438 3.68667 28.478 3.74C28.5313 3.78 28.558 3.83333 28.558 3.9V13.76C28.558 13.8267 28.5313 13.8867 28.478 13.94C28.438 13.98 28.3846 14 28.318 14H25.478C25.4113 14 25.3513 13.98 25.298 13.94C25.258 13.8867 25.238 13.8267 25.238 13.76V13.06C25.238 13.02 25.2246 12.9933 25.198 12.98C25.1713 12.9667 25.1446 12.98 25.118 13.02C24.5846 13.78 23.7446 14.16 22.598 14.16C21.5846 14.16 20.7646 13.84 20.138 13.2C19.5113 12.56 19.198 11.6667 19.198 10.52V3.9C19.198 3.83333 19.218 3.78 19.258 3.74C19.3113 3.68667 19.3713 3.66 19.438 3.66H22.278C22.3446 3.66 22.398 3.68667 22.438 3.74C22.4913 3.78 22.518 3.83333 22.518 3.9V9.76C22.518 10.2267 22.638 10.6 22.878 10.88C23.118 11.16 23.4446 11.3 23.858 11.3C24.2313 11.3 24.538 11.1867 24.778 10.96C25.0313 10.7333 25.1846 10.4333 25.238 10.06V3.9ZM39.8145 7.92C39.8812 8.32 39.9012 8.84667 39.8745 9.5C39.8612 9.66 39.7745 9.74 39.6145 9.74H33.5145C33.4879 9.74 33.4612 9.75333 33.4345 9.78C33.4079 9.79333 33.4012 9.81333 33.4145 9.84C33.4412 9.98667 33.5079 10.18 33.6145 10.42C33.7745 10.7 34.0145 10.9267 34.3345 11.1C34.6545 11.2733 35.0479 11.36 35.5145 11.36C36.3545 11.36 37.0145 11.0867 37.4945 10.54C37.5479 10.4733 37.6079 10.44 37.6745 10.44C37.7412 10.44 37.7945 10.4667 37.8345 10.52L39.3745 12.28C39.4279 12.32 39.4545 12.3733 39.4545 12.44C39.4545 12.4933 39.4279 12.5467 39.3745 12.6C38.9079 13.1067 38.3279 13.4933 37.6345 13.76C36.9545 14.0267 36.2079 14.16 35.3945 14.16C34.1812 14.16 33.1479 13.9 32.2945 13.38C31.4545 12.8467 30.8479 12.1067 30.4745 11.16C30.1945 10.4933 30.0545 9.66 30.0545 8.66C30.0545 7.96667 30.1612 7.3 30.3745 6.66C30.7212 5.67333 31.2879 4.9 32.0745 4.34C32.8745 3.76667 33.8212 3.48 34.9145 3.48C35.7945 3.48 36.5812 3.67333 37.2745 4.06C37.9679 4.43333 38.5279 4.96 38.9545 5.64C39.3945 6.30667 39.6812 7.06667 39.8145 7.92ZM34.9145 6.34C34.2212 6.34 33.7612 6.66667 33.5345 7.32C33.4812 7.46667 33.4479 7.60667 33.4345 7.74C33.4079 7.80667 33.4345 7.84 33.5145 7.84H36.3545C36.4079 7.84 36.4345 7.81333 36.4345 7.76C36.4345 7.65333 36.4079 7.52 36.3545 7.36C36.2612 7.02667 36.0879 6.77333 35.8345 6.6C35.5945 6.42667 35.2879 6.34 34.9145 6.34Z" fill="#434043"/>
<path d="M46.4153 14C46.3486 14 46.2886 13.98 46.2353 13.94C46.1953 13.8867 46.1753 13.8267 46.1753 13.76V0.24C46.1753 0.173333 46.1953 0.119999 46.2353 0.0799992C46.2886 0.0266658 46.3486 -9.53674e-07 46.4153 -9.53674e-07H49.2553C49.322 -9.53674e-07 49.3753 0.0266658 49.4153 0.0799992C49.4686 0.119999 49.4953 0.173333 49.4953 0.24V11.06C49.4953 11.1267 49.5286 11.16 49.5953 11.16H55.9753C56.042 11.16 56.0953 11.1867 56.1353 11.24C56.1886 11.28 56.2153 11.3333 56.2153 11.4V13.76C56.2153 13.8267 56.1886 13.8867 56.1353 13.94C56.0953 13.98 56.042 14 55.9753 14H46.4153ZM67.0802 7.92C67.1468 8.32 67.1668 8.84667 67.1402 9.5C67.1268 9.66 67.0402 9.74 66.8802 9.74H60.7802C60.7535 9.74 60.7268 9.75333 60.7002 9.78C60.6735 9.79333 60.6668 9.81333 60.6802 9.84C60.7068 9.98667 60.7735 10.18 60.8802 10.42C61.0402 10.7 61.2802 10.9267 61.6002 11.1C61.9202 11.2733 62.3135 11.36 62.7802 11.36C63.6202 11.36 64.2802 11.0867 64.7602 10.54C64.8135 10.4733 64.8735 10.44 64.9402 10.44C65.0068 10.44 65.0602 10.4667 65.1002 10.52L66.6402 12.28C66.6935 12.32 66.7202 12.3733 66.7202 12.44C66.7202 12.4933 66.6935 12.5467 66.6402 12.6C66.1735 13.1067 65.5935 13.4933 64.9002 13.76C64.2202 14.0267 63.4735 14.16 62.6602 14.16C61.4468 14.16 60.4135 13.9 59.5602 13.38C58.7202 12.8467 58.1135 12.1067 57.7402 11.16C57.4602 10.4933 57.3202 9.66 57.3202 8.66C57.3202 7.96667 57.4268 7.3 57.6402 6.66C57.9868 5.67333 58.5535 4.9 59.3402 4.34C60.1402 3.76667 61.0868 3.48 62.1802 3.48C63.0602 3.48 63.8468 3.67333 64.5402 4.06C65.2335 4.43333 65.7935 4.96 66.2202 5.64C66.6602 6.30667 66.9468 7.06667 67.0802 7.92ZM62.1802 6.34C61.4868 6.34 61.0268 6.66667 60.8002 7.32C60.7468 7.46667 60.7135 7.60667 60.7002 7.74C60.6735 7.80667 60.7002 7.84 60.7802 7.84H63.6202C63.6735 7.84 63.7002 7.81333 63.7002 7.76C63.7002 7.65333 63.6735 7.52 63.6202 7.36C63.5268 7.02667 63.3535 6.77333 63.1002 6.6C62.8602 6.42667 62.5535 6.34 62.1802 6.34ZM72.6991 3.5C73.5924 3.5 74.3991 3.65333 75.1191 3.96C75.8391 4.25333 76.4057 4.66667 76.8191 5.2C77.2324 5.72 77.4391 6.3 77.4391 6.94V13.76C77.4391 13.8267 77.4124 13.8867 77.3591 13.94C77.3191 13.98 77.2657 14 77.1991 14H74.3591C74.2924 14 74.2324 13.98 74.1791 13.94C74.1391 13.8867 74.1191 13.8267 74.1191 13.76V13.06C74.1191 13.0067 74.1057 12.98 74.0791 12.98C74.0524 12.9667 74.0257 12.9867 73.9991 13.04C73.4924 13.7867 72.6257 14.16 71.3991 14.16C70.3324 14.16 69.4791 13.9133 68.8391 13.42C68.2124 12.9133 67.8991 12.1733 67.8991 11.2C67.8991 10.1733 68.2524 9.38 68.9591 8.82C69.6791 8.26 70.7191 7.98 72.0791 7.98H74.0191C74.0857 7.98 74.1191 7.94667 74.1191 7.88V7.5C74.1191 7.14 73.9991 6.86 73.7591 6.66C73.5191 6.44667 73.1857 6.34 72.7591 6.34C72.4391 6.34 72.1591 6.4 71.9191 6.52C71.6924 6.64 71.5457 6.79333 71.4791 6.98C71.4124 7.12667 71.3191 7.19333 71.1991 7.18L68.3191 6.8C68.1591 6.77333 68.0791 6.71333 68.0791 6.62C68.1324 6.03333 68.3591 5.50667 68.7591 5.04C69.1724 4.56 69.7191 4.18667 70.3991 3.92C71.0924 3.64 71.8591 3.5 72.6991 3.5ZM72.3791 11.78C72.8857 11.78 73.2991 11.6533 73.6191 11.4C73.9524 11.1333 74.1191 10.7867 74.1191 10.36V9.88C74.1191 9.81333 74.0857 9.78 74.0191 9.78H72.8191C72.3124 9.78 71.9191 9.86667 71.6391 10.04C71.3724 10.2133 71.2391 10.4733 71.2391 10.82C71.2391 11.1133 71.3391 11.3467 71.5391 11.52C71.7391 11.6933 72.0191 11.78 72.3791 11.78ZM83.4822 14.16C82.5355 14.16 81.7089 14.0333 81.0022 13.78C80.2955 13.5133 79.7489 13.1467 79.3622 12.68C78.9889 12.2 78.8022 11.6533 78.8022 11.04V10.82C78.8022 10.7533 78.8222 10.7 78.8622 10.66C78.9155 10.6067 78.9755 10.58 79.0422 10.58H81.7422C81.8089 10.58 81.8622 10.6067 81.9022 10.66C81.9555 10.7 81.9822 10.7533 81.9822 10.82C81.9822 11.0733 82.1222 11.2867 82.4022 11.46C82.6822 11.62 83.0355 11.7 83.4622 11.7C83.8355 11.7 84.1289 11.64 84.3422 11.52C84.5689 11.3867 84.6822 11.2133 84.6822 11C84.6822 10.7867 84.5622 10.6333 84.3222 10.54C84.0955 10.4333 83.7222 10.3333 83.2022 10.24C82.3622 10.08 81.6822 9.88667 81.1622 9.66C80.4822 9.38 79.9422 9.03333 79.5422 8.62C79.1422 8.19333 78.9422 7.61333 78.9422 6.88C78.9422 5.84 79.3422 5.02 80.1422 4.42C80.9555 3.80667 82.0222 3.5 83.3422 3.5C84.2355 3.5 85.0155 3.64667 85.6822 3.94C86.3622 4.22 86.8889 4.62 87.2622 5.14C87.6355 5.66 87.8222 6.26 87.8222 6.94C87.8222 7.00667 87.7955 7.06667 87.7422 7.12C87.7022 7.16 87.6489 7.18 87.5822 7.18H84.9622C84.8955 7.18 84.8355 7.16 84.7822 7.12C84.7422 7.06667 84.7222 7.00667 84.7222 6.94C84.7222 6.68667 84.6022 6.48 84.3622 6.32C84.1222 6.16 83.7955 6.08 83.3822 6.08C83.0089 6.08 82.7022 6.14667 82.4622 6.28C82.2355 6.4 82.1222 6.57333 82.1222 6.8C82.1222 7.02667 82.2489 7.19333 82.5022 7.3C82.7555 7.39333 83.1822 7.5 83.7822 7.62C84.5555 7.78 85.0955 7.90667 85.4022 8C86.2289 8.26667 86.8689 8.62667 87.3222 9.08C87.7889 9.53333 88.0222 10.14 88.0222 10.9C88.0222 11.94 87.6089 12.7467 86.7822 13.32C85.9689 13.88 84.8689 14.16 83.4822 14.16ZM98.877 7.92C98.9437 8.32 98.9637 8.84667 98.937 9.5C98.9237 9.66 98.837 9.74 98.677 9.74H92.577C92.5504 9.74 92.5237 9.75333 92.497 9.78C92.4704 9.79333 92.4637 9.81333 92.477 9.84C92.5037 9.98667 92.5704 10.18 92.677 10.42C92.837 10.7 93.077 10.9267 93.397 11.1C93.717 11.2733 94.1104 11.36 94.577 11.36C95.417 11.36 96.077 11.0867 96.557 10.54C96.6104 10.4733 96.6704 10.44 96.737 10.44C96.8037 10.44 96.857 10.4667 96.897 10.52L98.437 12.28C98.4904 12.32 98.517 12.3733 98.517 12.44C98.517 12.4933 98.4904 12.5467 98.437 12.6C97.9704 13.1067 97.3904 13.4933 96.697 13.76C96.017 14.0267 95.2704 14.16 94.457 14.16C93.2437 14.16 92.2104 13.9 91.357 13.38C90.517 12.8467 89.9104 12.1067 89.537 11.16C89.257 10.4933 89.117 9.66 89.117 8.66C89.117 7.96667 89.2237 7.3 89.437 6.66C89.7837 5.67333 90.3504 4.9 91.137 4.34C91.937 3.76667 92.8837 3.48 93.977 3.48C94.857 3.48 95.6437 3.67333 96.337 4.06C97.0304 4.43333 97.5904 4.96 98.017 5.64C98.457 6.30667 98.7437 7.06667 98.877 7.92ZM93.977 6.34C93.2837 6.34 92.8237 6.66667 92.597 7.32C92.5437 7.46667 92.5104 7.60667 92.497 7.74C92.4704 7.80667 92.497 7.84 92.577 7.84H95.417C95.4704 7.84 95.497 7.81333 95.497 7.76C95.497 7.65333 95.4704 7.52 95.417 7.36C95.3237 7.02667 95.1504 6.77333 94.897 6.6C94.657 6.42667 94.3504 6.34 93.977 6.34Z" fill="url(#paint0_linear_1_3)"/>
<defs>
<linearGradient id="paint0_linear_1_3" x1="0" y1="6" x2="100" y2="6" gradientUnits="userSpaceOnUse">
<stop offset="0.291667" stop-color="#9E1AEB"/>
<stop offset="1" stop-color="#F86FF6"/>
</linearGradient>
</defs>
</svg>
